<svg xmlns="http://www.w3.org/2000/svg" width="1347.016" height="202.943" viewBox="0 0 1347.016 202.943">
  <g id="グループ_604" data-name="グループ 604" transform="translate(23306.016 13596.943)">
    <g id="グループ_52" data-name="グループ 52" transform="translate(-23385.029 -23371.541)">
      <path id="パス_42" data-name="パス 42" d="M11.172.395,1.378-91.05H19.262l5.11,57.7,5.11-57.7H46.515l4.9,57.7,4.9-57.7h18.1L64.4.395H42.47L37.892-43.678,33.527.395Zm68.664,0V-91.05h36.621v17.672H98.465V-55.6h17.246v17.246H98.465v20.972h19.162V.395Zm51.737,0v-73.88H120.714V-91.05h40.027v17.565H149.883V.395Zm56,.852q-12.455,0-17.991-6.174t-5.536-19.907v-8.942h17.991v11.391q0,6.813,4.365,6.813a3.791,3.791,0,0,0,3.407-1.437,9.108,9.108,0,0,0,.958-4.844,21.912,21.912,0,0,0-1.065-7.4,16.133,16.133,0,0,0-2.715-4.9q-1.65-1.969-5.908-6.121L173.2-48.149q-9.155-8.942-9.155-19.8,0-11.71,5.376-17.831t15.7-6.121q12.349,0,17.778,6.547t5.429,20.493H189.7l-.106-6.281a4,4,0,0,0-1.011-2.874,3.7,3.7,0,0,0-2.821-1.065,4.1,4.1,0,0,0-3.194,1.171,4.569,4.569,0,0,0-1.065,3.194q0,4.471,5.11,9.262l10.646,10.22a60.7,60.7,0,0,1,6.174,6.866,26.9,26.9,0,0,1,3.939,7.665,32.91,32.91,0,0,1,1.49,10.486q0,13.52-4.95,20.493T187.568,1.246Zm48.544,0q-11.284,0-16.767-6.387T213.863-24.09V-91.05h17.778v66.215a21.538,21.538,0,0,0,.852,6.813,3.464,3.464,0,0,0,3.619,2.448,3.463,3.463,0,0,0,3.619-2.4,21.456,21.456,0,0,0,.852-6.866V-91.05h17.778v66.96q0,12.562-5.482,18.949T236.112,1.246ZM264.535.395V-91.05h17.672V.395Zm32.895,0v-73.88H286.571V-91.05H326.6v17.565H315.74V.395Zm56,.852q-12.455,0-17.991-6.174T329.9-24.835v-8.942H347.89v11.391q0,6.813,4.365,6.813a3.791,3.791,0,0,0,3.407-1.437,9.108,9.108,0,0,0,.958-4.844,21.913,21.913,0,0,0-1.065-7.4,16.134,16.134,0,0,0-2.715-4.9q-1.65-1.969-5.908-6.121l-7.878-7.878q-9.155-8.942-9.155-19.8,0-11.71,5.376-17.831t15.7-6.121q12.349,0,17.778,6.547t5.429,20.493h-18.63l-.106-6.281a4,4,0,0,0-1.011-2.874,3.7,3.7,0,0,0-2.821-1.065,4.1,4.1,0,0,0-3.194,1.171,4.569,4.569,0,0,0-1.065,3.194q0,4.471,5.11,9.262l10.646,10.22a60.7,60.7,0,0,1,6.174,6.866,26.9,26.9,0,0,1,3.939,7.665,32.911,32.911,0,0,1,1.49,10.486q0,13.52-4.95,20.493T353.425,1.246ZM4.039,108.858V17.413H40.66V35.191h-18.2V49.776H39.7V67.341H22.456v41.518Zm40.027,0L52.9,17.413H83.881l8.729,91.445H75.258l-1.277-14.8H62.909l-1.065,14.8ZM64.293,79.477h8.3L68.551,32.956H67.7Zm55.144,30.233q-10.007,0-16.022-6.281T97.4,86.183V44.027q0-13.626,5.429-20.546t17.033-6.92q10.113,0,16.288,5.536t6.174,15.968V53.821h-18.2V40.3q0-3.939-.958-5.429a3.618,3.618,0,0,0-3.3-1.49,3.449,3.449,0,0,0-3.353,1.7,10.946,10.946,0,0,0-.9,5V85.971a10.012,10.012,0,0,0,1.065,5.27,3.548,3.548,0,0,0,3.194,1.65q4.258,0,4.258-6.92V69.47h18.417V86.716Q142.538,109.71,119.437,109.71Zm37.046-.852V34.978H145.625V17.413h40.027V34.978H174.793v73.88Zm56.1.852q-11.071,0-16.82-6.76t-5.749-19V40.408q0-11.817,5.749-17.831t16.82-6.015q11.071,0,16.82,6.015t5.749,17.831v43.54q0,12.349-5.749,19.055T212.585,109.71Zm0-16.82a3.235,3.235,0,0,0,3.3-2.129,16.585,16.585,0,0,0,.852-5.961V40.088a12.429,12.429,0,0,0-.8-4.844,3.169,3.169,0,0,0-3.247-1.863q-4.578,0-4.578,6.92v44.6a14.443,14.443,0,0,0,.958,5.961A3.536,3.536,0,0,0,212.585,92.89ZM242.5,17.413h28.1q6.707,0,10.379,3.034a15.079,15.079,0,0,1,4.95,8.516,63.346,63.346,0,0,1,1.277,14q0,7.771-2.023,12.136a11.363,11.363,0,0,1-7.026,6.068,8.462,8.462,0,0,1,6.015,4.152,18.222,18.222,0,0,1,1.863,8.942l-.213,34.6H267.942V73.089q0-3.832-1.49-4.9t-5.429-1.065v41.73H242.5Zm22.994,33.853q3.832,0,3.832-8.3a33.907,33.907,0,0,0-.319-5.429,4.034,4.034,0,0,0-1.171-2.5,3.8,3.8,0,0,0-2.448-.692h-4.258V51.266Zm38.856,57.592V78.732L289.765,17.413h18.1l5.11,30.978,5.11-30.978h18.1L321.6,78.732v30.127Zm60.467,0V17.413h17.672v91.445Zm25.017,0V17.413h18.843l8.41,43.753V17.413h17.672v91.445H416.873l-9.155-45.776v45.776Zm85.8,0V34.978H464.777V17.413H504.8V34.978H493.946v73.88Zm56.1.852q-11.071,0-16.82-6.76t-5.749-19V40.408q0-11.817,5.749-17.831t16.82-6.015q11.071,0,16.82,6.015t5.749,17.831v43.54q0,12.349-5.749,19.055T531.738,109.71Zm0-16.82a3.236,3.236,0,0,0,3.3-2.129,16.584,16.584,0,0,0,.852-5.961V40.088a12.429,12.429,0,0,0-.8-4.844,3.169,3.169,0,0,0-3.247-1.863q-4.578,0-4.578,6.92v44.6a14.444,14.444,0,0,0,.958,5.961A3.536,3.536,0,0,0,531.738,92.89Zm29.914,15.968V17.413h18.1V54.034l8.516-36.621h18.417L596.462,59.25l12.349,49.608H589.862L579.855,64.573v44.285Zm61.318,0V78.732L608.385,17.413h18.1l5.11,30.978,5.11-30.978h18.1L640.216,78.732v30.127Zm58.231.852q-11.071,0-16.82-6.76t-5.749-19V40.408q0-11.817,5.749-17.831t16.82-6.015q11.071,0,16.82,6.015t5.749,17.831v43.54q0,12.349-5.749,19.055T681.2,109.71Zm0-16.82a3.235,3.235,0,0,0,3.3-2.129,16.585,16.585,0,0,0,.852-5.961V40.088a12.43,12.43,0,0,0-.8-4.844,3.169,3.169,0,0,0-3.247-1.863q-4.577,0-4.578,6.92v44.6a14.442,14.442,0,0,0,.958,5.961A3.536,3.536,0,0,0,681.2,92.89Z" transform="translate(721.76 9867)" fill="#264898" stroke="#fff" stroke-width="1"/>
    </g>
    <path id="パス_79" data-name="パス 79" d="M7.122,38.564V-160.356H68.154q15.258,0,23.057,6.951t10.455,19.44a142.446,142.446,0,0,1,2.656,29.329q0,16.275-4.125,26T84.655-65.191q9.381,1.921,13.167,9.324t3.786,19.157V38.564H62.39V-39.309q0-8.7-3.56-10.794T47.358-52.193V38.564ZM47.584-86.665h9.607q8.251,0,8.251-17.971,0-11.641-1.808-15.258t-6.781-3.617H47.584ZM117.432,38.564V-160.356H197v38.428H157.894v38.767h37.523v37.41H157.894V-.2H199.6V38.564Zm95.278,0V-160.356h54.7q21.474,0,32.324,11.924t10.85,34.867v93.13q0,28.256-9.889,43.627T266.056,38.564Zm40.01-35.15h6.894q10.963,0,10.963-10.624V-109.835q0-9.946-2.656-12.828t-10.794-2.882H252.72Zm74.143,35.15V-160.356h39.784V4.657H407.56V38.564Zm139.47,1.808q-23.848,0-36.45-14.41t-12.6-41.649v-94.487q0-25.543,12.489-38.767t36.563-13.224q24.074,0,36.563,13.224t12.489,38.767v94.487q0,27.238-12.6,41.649T466.332,40.372Zm.339-36.619q9.042,0,9.042-17.518v-97.086q0-14.693-8.816-14.693-9.946,0-9.946,15.032V-13.54q0,9.268,2.26,13.28T466.671,3.753ZM578.9,40.372q-23.848,0-36.45-14.41t-12.6-41.649v-94.487q0-25.543,12.489-38.767T578.9-162.164q24.074,0,36.563,13.224t12.489,38.767v94.487q0,27.238-12.6,41.649T578.9,40.372Zm.339-36.619q9.042,0,9.042-17.518v-97.086q0-14.693-8.816-14.693-9.946,0-9.946,15.032V-13.54q0,9.268,2.26,13.28T579.241,3.753Z" transform="translate(-23313.137 -13434.372)" fill="#fff"/>
  </g>
</svg>
