<svg xmlns="http://www.w3.org/2000/svg" width="77.369" height="23" viewBox="0 0 77.369 23">
  <g id="グループ_58" data-name="グループ 58" transform="translate(-682.047 -9689.274)">
    <path id="パス_80" data-name="パス 80" d="M-32.6,0V-12.031h4.813v2.345h-2.393v1.914h2.27v2.317h-2.27V0Zm8.456.109a2.772,2.772,0,0,1-2.2-.872,3.715,3.715,0,0,1-.762-2.519V-9a3.293,3.293,0,0,1,.755-2.345,2.9,2.9,0,0,1,2.211-.8,2.9,2.9,0,0,1,2.211.8A3.293,3.293,0,0,1-21.181-9v5.715a3.715,3.715,0,0,1-.762,2.519A2.772,2.772,0,0,1-24.148.109Zm.021-2.215q.547,0,.547-1.06V-9.037q0-.889-.533-.889-.6,0-.6.909v5.865a1.733,1.733,0,0,0,.137.8A.477.477,0,0,0-24.127-2.105ZM-20.21,0V-12.031H-17.8v9.98h2.475V0Zm5.564,0V-12.031h2.406v9.98h2.475V0ZM-6.21.109a2.772,2.772,0,0,1-2.2-.872,3.715,3.715,0,0,1-.762-2.519V-9a3.293,3.293,0,0,1,.755-2.345,2.9,2.9,0,0,1,2.211-.8,2.9,2.9,0,0,1,2.211.8A3.293,3.293,0,0,1-3.244-9v5.715A3.715,3.715,0,0,1-4.006-.762,2.772,2.772,0,0,1-6.21.109Zm.021-2.215q.547,0,.547-1.06V-9.037q0-.889-.533-.889-.6,0-.6.909v5.865a1.733,1.733,0,0,0,.137.8A.477.477,0,0,0-6.19-2.105ZM-1.33,0-2.622-12.031H-.27L.393-4.437l.677-7.595H3.312l.643,7.595L4.6-12.031H6.976L5.664,0H2.779l-.6-5.79L1.6,0Zm12.3,0V-12.031h3.664L15.651-4.7l1-7.335h3.7V0h-2.2V-8.668L16.772,0h-2.16L13.149-8.668V0ZM21.42,0V-12.031h4.813v2.324H23.868v2.345h2.27V-5.1h-2.27v2.755H26.39V0Zm9.365-3.274-.479-8.757h2.447l-.479,8.757ZM30.307-.007V-2.044h2.447V-.007Z" transform="translate(721 9707)" fill="#fff"/>
    <line id="線_4" data-name="線 4" x2="77.369" transform="translate(682.047 9711.774)" fill="none" stroke="#fff" stroke-width="1"/>
    <line id="線_5" data-name="線 5" x2="77.369" transform="translate(682.047 9689.774)" fill="none" stroke="#fff" stroke-width="1"/>
  </g>
</svg>
