<svg xmlns="http://www.w3.org/2000/svg" width="967" height="119.88" viewBox="0 0 967 119.88">
  <g id="グループ_23" data-name="グループ 23" transform="translate(-437 -4426.886)">
    <path id="パス_81" data-name="パス 81" d="M82.88,4.44A146.767,146.767,0,0,1,61.272,2.96,106.789,106.789,0,0,1,42.994-1.332,74.519,74.519,0,0,1,28.046-8.14a61.3,61.3,0,0,1-11.618-9.028A49.658,49.658,0,0,1,8.066-28.194,50.33,50.33,0,0,1,3.108-41,61.549,61.549,0,0,1,1.48-55.352a57.788,57.788,0,0,1,4-22.052A49.1,49.1,0,0,1,16.8-94.276a63.321,63.321,0,0,1,17.464-11.84,93.188,93.188,0,0,1,22.422-7.03,142.643,142.643,0,0,1,26.2-2.294q24.568,0,41.736,5.92T151.774-92.5A51.341,51.341,0,0,1,164.28-65.564l-62.9,10.212A11.068,11.068,0,0,0,99.9-61.2a11.276,11.276,0,0,0-4-3.922,20.027,20.027,0,0,0-5.846-2.22,33.057,33.057,0,0,0-7.178-.74,29.425,29.425,0,0,0-9.472,1.406,15.108,15.108,0,0,0-6.586,4.144,9.956,9.956,0,0,0-2.442,6.882,11.53,11.53,0,0,0,.888,4.588,10.9,10.9,0,0,0,2.516,3.626,12.753,12.753,0,0,0,3.922,2.516,24.8,24.8,0,0,0,5.106,1.48,33.514,33.514,0,0,0,6.068.518A25.29,25.29,0,0,0,96.052-46.1a10.163,10.163,0,0,0,5.328-9.25l62.9,6.364A57.827,57.827,0,0,1,157.1-28.416,56.9,56.9,0,0,1,141.71-11.4Q131.868-4,117.29.222T82.88,4.44ZM251.156-111h61.42V0h-61.42V-36.112a.3.3,0,0,0-.074-.222.3.3,0,0,0-.222-.074H230.584q-.148,0-.148.074V0h-61.42V-111h61.42v43.438q0,.074.148.074H250.86a.3.3,0,0,0,.222-.074.3.3,0,0,0,.074-.222V-111ZM442.964-73.7H378.436v8.436h62.308V-44.4H378.51a.065.065,0,0,0-.074.074v8.51h65.416V0H318.5V-111H442.964ZM528.656,4.44a146.767,146.767,0,0,1-21.608-1.48A106.789,106.789,0,0,1,488.77-1.332,74.518,74.518,0,0,1,473.822-8.14,61.3,61.3,0,0,1,462.2-17.168a49.658,49.658,0,0,1-8.362-11.026A50.33,50.33,0,0,1,448.884-41a61.55,61.55,0,0,1-1.628-14.356,57.788,57.788,0,0,1,4-22.052,49.1,49.1,0,0,1,11.322-16.872,63.321,63.321,0,0,1,17.464-11.84,93.188,93.188,0,0,1,22.422-7.03,142.643,142.643,0,0,1,26.2-2.294q24.568,0,41.736,5.92T597.55-92.5a51.341,51.341,0,0,1,12.506,26.936l-62.9,10.212a11.068,11.068,0,0,0-1.48-5.846,11.276,11.276,0,0,0-4-3.922,20.026,20.026,0,0,0-5.846-2.22,33.057,33.057,0,0,0-7.178-.74,29.425,29.425,0,0,0-9.472,1.406A15.108,15.108,0,0,0,512.6-62.53a9.956,9.956,0,0,0-2.442,6.882,11.53,11.53,0,0,0,.888,4.588,10.9,10.9,0,0,0,2.516,3.626,12.753,12.753,0,0,0,3.922,2.516,24.8,24.8,0,0,0,5.106,1.48,33.514,33.514,0,0,0,6.068.518A25.29,25.29,0,0,0,541.828-46.1a10.163,10.163,0,0,0,5.328-9.25l62.9,6.364a57.827,57.827,0,0,1-7.178,20.572A56.9,56.9,0,0,1,587.486-11.4Q577.644-4,563.066.222T528.656,4.44ZM697.672,0l-21.46-55.5q2.96-6.956,5.772-13.912t5.7-13.838q2.886-6.882,5.772-13.838t5.7-13.912h66.6q-2.516,5.18-5.92,11.988L752.95-85.248l-6.438,12.876q-2.96,5.92-4.81,9.546l-1.85,3.626,1.924,4.218q1.924,4.218,5.032,11.026t6.808,14.726q3.7,7.918,7.252,15.614T767.232,0Zm-82.88,0V-111h61.42V0Z" transform="translate(537 4542.326)" fill="#264898"/>
    <path id="多角形_1" data-name="多角形 1" d="M33,0,66,55H0Z" transform="translate(503 4518.326) rotate(-180)" fill="#264898"/>
    <path id="多角形_2" data-name="多角形 2" d="M33,0,66,55H0Z" transform="translate(1404 4518.326) rotate(-180)" fill="#264898"/>
  </g>
</svg>
