<svg xmlns="http://www.w3.org/2000/svg" width="130.789" height="1817.469" viewBox="0 0 130.789 1817.469">
  <path id="パス_86" data-name="パス 86" d="M5.637,0V-127.187H56.512v24.57h-25V-77.83H55.5v23.92H31.508v29.123H58.174V0ZM78.264,0,62.582-127.26H86.791l9.322,86.574,8.311-86.574h24.209L112.951,0ZM136,0V-127.187h50.875v24.57h-25V-77.83h23.992v23.92H161.875v29.123h26.666V0Zm60.92,0V-127.187h39.023q9.756,0,14.742,4.444t6.685,12.43a91.078,91.078,0,0,1,1.7,18.753q0,10.406-2.638,16.621t-9.937,8.6q6,1.229,8.419,5.962t2.421,12.249V0H232.262V-49.791q0-5.564-2.276-6.9t-7.335-1.337V0Zm25.871-80.07h6.143q5.275,0,5.275-11.49,0-7.443-1.156-9.756t-4.336-2.312h-5.926ZM282.848,0V-41.842l-20.307-85.346h25.221l7.082,43.07,7.082-43.07h25.148L306.84-41.842V0Zm85.346,0V-127.187h50.875V-102.4H393.775v20.234h23.992v24.5H393.775V0Zm57.885,0V-127.187h24.57V0Zm45.6,0V-102.762h-15.1v-24.426h55.645v24.426h-15.1V0Zm82.311,0V-127.187h34.471q13.875,0,20.2,6.757t6.323,22.294v5.564q0,8.961-3.216,14.525a15.315,15.315,0,0,1-9.792,7.3q8.6,2.168,11.526,10.153t2.927,19.476a89.722,89.722,0,0,1-2.312,21.607q-2.313,9.25-8.383,14.381T588.459,0Zm24.859-79.275h5.2q3.541,0,4.553-2.746a19.06,19.06,0,0,0,1.012-6.576v-12.791q0-6.143-5.42-6.143h-5.348ZM581.377-22.4q9.9,0,9.9-9.395V-47.7a18.815,18.815,0,0,0-1.626-8.563q-1.626-3.144-6.106-3.144h-4.7v36.855Q580.437-22.4,581.377-22.4ZM624.809,0V-127.187h50.875v24.57h-25V-77.83h23.992v23.92H650.68v29.123h26.666V0Zm87.152,1.156q-27.244,0-27.244-39.023v-54.85q0-35.627,31.219-35.627,12.863,0,19.729,5.167t9.467,15.067q2.6,9.9,2.6,24.137H722.873V-95.246a18.562,18.562,0,0,0-1.12-6.9q-1.12-2.782-4.661-2.782-4.408,0-5.817,2.963a14.947,14.947,0,0,0-1.409,6.5V-33.82a22,22,0,0,0,1.337,8.347q1.337,3.216,5.239,3.216,4.047,0,5.384-3.216a22.469,22.469,0,0,0,1.337-8.491V-52.1h-6.793V-74.072h31.074V0H737.254l-4.336-10.7Q726.27,1.156,711.961,1.156ZM756.332,0V-127.187H780.9V0ZM791.02,0V-127.187h26.16l11.707,60.92v-60.92h24.57V0H828.6L815.879-63.594V0ZM894.938,1.156q-17.416,0-25.112-8.672t-7.7-27.605v-12.43h25.148v15.9a14.754,14.754,0,0,0,1.337,6.9,4.836,4.836,0,0,0,4.661,2.493q3.469,0,4.806-2.023t1.337-6.648a35.3,35.3,0,0,0-1.156-9.792,21.94,21.94,0,0,0-4.011-7.516,84.083,84.083,0,0,0-7.913-8.347L874.92-67.424q-12.791-12.068-12.791-27.605,0-16.26,7.552-24.787t21.86-8.527q17.488,0,24.823,9.322T923.7-90.693H897.828v-8.744a5.394,5.394,0,0,0-1.481-4.047,5.5,5.5,0,0,0-4.011-1.445,5.451,5.451,0,0,0-4.444,1.7,6.619,6.619,0,0,0-1.409,4.372,13.8,13.8,0,0,0,1.445,5.781,25.635,25.635,0,0,0,5.709,7.154l14.67,14.092a84.709,84.709,0,0,1,8.094,8.853,38.452,38.452,0,0,1,5.926,10.84,44.445,44.445,0,0,1,2.24,15.067q0,17.922-6.612,28.075T894.938,1.156ZM977.682,0,964.023-127.187h24.859l7.01,80.287,7.154-80.287h23.7l6.793,80.287,6.793-80.287h25.148L1051.609,0h-30.5l-6.359-61.209L1008.684,0Zm94.234,0V-127.187h24.57V0Zm45.6,0V-102.762h-15.1v-24.426h55.645v24.426h-15.1V0Zm47.623,0V-127.187h25.293v45.455h12v-45.455h25.293V0h-25.293V-57.668h-12V0Zm137.883,1.445q-16.838,0-24.5-8.889t-7.66-26.811v-13.3h26.088v13.369a25.379,25.379,0,0,0,1.265,8.563q1.265,3.5,5.673,3.5,4.48,0,5.709-3.794t1.229-12.394v-3.18a27.86,27.86,0,0,0-2.2-11.49q-2.2-4.914-8.636-4.914-.795,0-1.409.036a10.111,10.111,0,0,0-1.048.108V-80.576q6.576,0,10.045-2.927t3.469-9.792q0-10.768-6.215-10.768-4.047,0-5.456,3.144a19.6,19.6,0,0,0-1.409,7.985v3.83h-26.3q-.072-.867-.108-2.1t-.036-2.385q0-17.488,8.166-25.654t25-8.166q32.52,0,32.52,33.82,0,9.395-2.529,15.5a15.072,15.072,0,0,1-9.395,8.563,18.942,18.942,0,0,1,8.021,6.648,24.269,24.269,0,0,1,3.4,10.045,112.835,112.835,0,0,1,.795,14.525q0,19.078-7.985,29.412T1303.021,1.445Zm76.385-.289q-13.225,0-20.7-4.517a24.351,24.351,0,0,1-10.551-13.622q-3.071-9.105-3.071-22.691v-34.4a214.628,214.628,0,0,1,1.12-23.342,48.687,48.687,0,0,1,4.661-16.982,23.464,23.464,0,0,1,10.551-10.406q7.01-3.541,18.717-3.541a39.813,39.813,0,0,1,14.959,2.782,26.072,26.072,0,0,1,11.2,8.311q4.264,5.528,4.264,13.839v13.73h-24.5v-2.6a62.465,62.465,0,0,0-.325-6.359,12.276,12.276,0,0,0-1.626-5.275,4.776,4.776,0,0,0-4.408-2.1q-4.264,0-5.926,2.349t-1.662,6.757V-71.4a13.57,13.57,0,0,1,5.42-5.456,17.55,17.55,0,0,1,8.816-2.06q10.551,0,16.224,4.228t7.841,12.61a85.346,85.346,0,0,1,2.168,20.957,71.63,71.63,0,0,1-3.107,22.222A28.66,28.66,0,0,1,1399.1-4.119Q1391.836,1.156,1379.406,1.156Zm-.939-23.414q4.48,0,5.348-3.794a44.845,44.845,0,0,0,.867-9.72V-46.033q0-10.406-5.854-10.406-6.721,0-6.721,9.033v15.754Q1372.107-22.258,1378.467-22.258ZM1454.635,0V-127.187h33.6q10.551,0,16.729,4.7a25.72,25.72,0,0,1,8.853,13.369,70.579,70.579,0,0,1,2.674,20.668,80.1,80.1,0,0,1-2.24,20.126q-2.24,8.563-7.985,13.261t-16.3,4.7h-10.334V0Zm25-73.205h1.445q7.082,0,8.672-3.975t1.59-11.707q0-7.227-1.554-11.165t-7.335-3.938h-2.818Zm75.229,74.361q-15.248,0-23.306-9.214t-8.058-26.63V-95.1q0-16.332,7.985-24.787t23.378-8.455q15.393,0,23.378,8.455T1586.23-95.1v60.414q0,17.416-8.058,26.63T1554.867,1.156Zm.217-23.414q5.781,0,5.781-11.2V-95.535q0-9.395-5.637-9.395-6.359,0-6.359,9.611v62q0,5.926,1.445,8.491A5.044,5.044,0,0,0,1555.084-22.258ZM1595.336,0V-127.187h24.57V0Zm34.688,0V-127.187h26.16l11.707,60.92v-60.92h24.57V0H1667.6l-12.719-63.594V0Zm84.623,0V-102.762h-15.1v-24.426h55.645v24.426h-15.1V0Zm77.83,1.156q-17.416,0-25.112-8.672t-7.7-27.605v-12.43h25.148v15.9a14.755,14.755,0,0,0,1.337,6.9,4.836,4.836,0,0,0,4.661,2.493q3.469,0,4.806-2.023t1.337-6.648a35.3,35.3,0,0,0-1.156-9.792,21.942,21.942,0,0,0-4.011-7.516,84.069,84.069,0,0,0-7.913-8.347l-11.418-10.84q-12.791-12.068-12.791-27.605,0-16.26,7.552-24.787t21.86-8.527q17.488,0,24.823,9.322t7.335,28.328h-25.871v-8.744a5.394,5.394,0,0,0-1.481-4.047,5.5,5.5,0,0,0-4.011-1.445,5.451,5.451,0,0,0-4.444,1.7,6.619,6.619,0,0,0-1.409,4.372,13.8,13.8,0,0,0,1.445,5.781,25.635,25.635,0,0,0,5.709,7.154l14.67,14.092a84.7,84.7,0,0,1,8.094,8.853,38.454,38.454,0,0,1,5.926,10.84,44.443,44.443,0,0,1,2.24,15.067q0,17.922-6.612,28.075T1792.477,1.156Z" transform="translate(1.945 -5.137) rotate(90)" fill="none" stroke="#fff" stroke-width="1"/>
</svg>
