<svg xmlns="http://www.w3.org/2000/svg" width="1144.127" height="160.25" viewBox="0 0 1144.127 160.25">
  <path id="パス_82" data-name="パス 82" d="M-570.572,0V-156.406h42.39q17.063,0,24.838,8.309t7.776,27.416v6.843q0,11.02-3.955,17.862A18.833,18.833,0,0,1-511.564-87q10.575,2.666,14.174,12.486t3.6,23.95a110.334,110.334,0,0,1-2.844,26.571q-2.844,11.375-10.309,17.685T-528.182,0ZM-540-97.487h6.4q4.355,0,5.6-3.377a23.439,23.439,0,0,0,1.244-8.087v-15.729q0-7.554-6.665-7.554H-540Zm3.11,69.938q12.175,0,12.175-11.553V-58.652q0-6.665-2-10.531t-7.509-3.866H-540v45.322Q-538.046-27.549-536.891-27.549Zm89.578,28.971q-19.551,0-28.793-10.975t-9.242-32.3v-114.55h30.393V-43.1a61.284,61.284,0,0,0,.444,7.509,13.055,13.055,0,0,0,2.044,5.91q1.6,2.311,5.154,2.311,3.644,0,5.243-2.266a12.466,12.466,0,0,0,2-5.91,69.232,69.232,0,0,0,.4-7.554V-156.406h30.393v114.55q0,21.328-9.242,32.3T-447.313,1.422ZM-398.7,0V-156.406h30.215V0Zm42.656,0V-156.406h31.281V-26.66h32.17V0Zm72.338,0V-156.406H-240.7q16.885,0,25.416,9.375t8.531,27.416v73.227q0,22.217-7.776,34.3T-241.763,0Zm31.459-27.638h5.421q8.62,0,8.62-8.354v-80.691q0-7.82-2.088-10.086t-8.487-2.266h-3.466ZM-132.368,0V-51.454l-24.972-104.952h31.015l8.709,52.965,8.709-52.965h30.926L-102.864-51.454V0Zm99.62,1.422q-18.751,0-28.66-11.331t-9.909-32.748v-74.293q0-20.084,9.82-30.481t28.749-10.4q18.929,0,28.749,10.4t9.82,30.481v74.293q0,21.417-9.909,32.748T-32.748,1.422Zm.267-28.793q7.109,0,7.109-13.774v-76.337q0-11.553-6.932-11.553-7.82,0-7.82,11.819v76.248q0,7.287,1.777,10.442A6.2,6.2,0,0,0-32.481-27.371ZM54.609,1.422q-19.551,0-28.793-10.975t-9.242-32.3v-114.55H46.966V-43.1a61.286,61.286,0,0,0,.444,7.509,13.054,13.054,0,0,0,2.044,5.91q1.6,2.311,5.154,2.311,3.644,0,5.243-2.266a12.466,12.466,0,0,0,2-5.91,69.232,69.232,0,0,0,.4-7.554V-156.406H92.644v114.55q0,21.328-9.242,32.3T54.609,1.422ZM104.641,0V-156.406h47.988q12,0,18.129,5.465t8.22,15.285a112,112,0,0,1,2.088,23.061q0,12.8-3.244,20.439T165.6-81.58q7.376,1.511,10.353,7.332t2.977,15.063V0H148.1V-61.229q0-6.843-2.8-8.487t-9.02-1.644V0Zm31.814-98.465h7.554q6.487,0,6.487-14.13,0-9.153-1.422-12t-5.332-2.844h-7.287Zm134.9,99.887q-18.751,0-28.66-11.331t-9.909-32.748v-74.293q0-20.084,9.82-30.481t28.749-10.4q18.929,0,28.749,10.4t9.82,30.481v74.293q0,21.417-9.909,32.748T271.356,1.422Zm.267-28.793q7.109,0,7.109-13.774v-76.337q0-11.553-6.932-11.553-7.82,0-7.82,11.819v76.248q0,7.287,1.777,10.442A6.2,6.2,0,0,0,271.623-27.371ZM334.807,0l-16.8-156.406h30.57l8.62,98.731,8.8-98.731h29.148L403.5-57.675l8.354-98.731h30.926L425.718,0h-37.5L380.4-75.271,372.931,0Zm117.3,0V-156.406h32.17l14.4,74.915v-74.915h30.215V0h-30.57L482.682-78.2V0Zm94.821-42.567-6.221-113.839h31.814L566.306-42.567ZM540.712-.089V-26.571h31.814V-.089Z" transform="translate(571.072 158.328)" fill="none" stroke="#264898" stroke-width="1"/>
</svg>
