<svg xmlns="http://www.w3.org/2000/svg" width="20.511" height="17.947" viewBox="0 0 20.511 17.947">
  <path id="パス_66" data-name="パス 66" d="M69.416,99.421l-1.046,2.988H80.14l-1.046-2.988a1.283,1.283,0,0,0-1.21-.857H70.626A1.283,1.283,0,0,0,69.416,99.421Zm-3.83,3.181L67,98.576A3.847,3.847,0,0,1,70.626,96h7.259a3.847,3.847,0,0,1,3.629,2.576l1.41,4.026a2.569,2.569,0,0,1,1.586,2.372v7.692a1.281,1.281,0,0,1-1.282,1.282H81.947a1.281,1.281,0,0,1-1.282-1.282v-1.282H67.846v1.282a1.281,1.281,0,0,1-1.282,1.282H65.282A1.281,1.281,0,0,1,64,112.665v-7.692A2.569,2.569,0,0,1,65.586,102.6Zm3.541,4.294a1.282,1.282,0,1,0-1.282,1.282A1.281,1.281,0,0,0,69.128,106.9Zm11.537,1.282a1.282,1.282,0,1,0-1.282-1.282A1.281,1.281,0,0,0,80.665,108.178Z" transform="translate(-64 -96)" fill="#264898"/>
</svg>
