<svg xmlns="http://www.w3.org/2000/svg" width="21.109" height="28.146" viewBox="0 0 21.109 28.146">
  <path id="パス_61" data-name="パス 61" d="M129.759,65.759a1.759,1.759,0,0,1,3.518,0V77.193h-3.518Zm10.555,8.8a1.759,1.759,0,1,1,3.518,0v3.518a1.759,1.759,0,1,1-3.518,0ZM136.8,71.036a1.757,1.757,0,0,1,1.759,1.759v2.639a1.759,1.759,0,1,1-3.518,0V72.8A1.757,1.757,0,0,1,136.8,71.036Zm8.8,5.277a1.759,1.759,0,0,1,3.518,0v3.518a1.759,1.759,0,0,1-3.518,0Zm-5.277,4.838v-.033A3.516,3.516,0,0,0,144.03,81a3.52,3.52,0,0,0,3.32,2.353,3.465,3.465,0,0,0,1.759-.473v.473a8.793,8.793,0,0,1-8.8,8.8h-3.392a8.8,8.8,0,0,1-6.217-2.578l-.643-.638A7.041,7.041,0,0,1,128,83.955V82.471a3.521,3.521,0,0,1,3.518-3.518h4.838a2.2,2.2,0,1,1,0,4.4h-3.078a.88.88,0,1,0,0,1.759h3.078A3.956,3.956,0,0,0,140.314,81.151Z" transform="translate(-128 -64)" fill="#264898"/>
</svg>
