<svg xmlns="http://www.w3.org/2000/svg" width="28.061" height="28.054" viewBox="0 0 28.061 28.054">
  <path id="パス_43" data-name="パス 43" d="M110.158,102.659a7.2,7.2,0,1,0,7.18,7.218A7.2,7.2,0,0,0,110.158,102.659Zm-.038,2.529a4.67,4.67,0,1,1-4.651,4.689A4.67,4.67,0,0,1,110.121,105.188Zm5.847-2.823a1.678,1.678,0,1,1,1.678,1.678A1.678,1.678,0,0,1,115.967,102.365Zm8.119,1.7a7.769,7.769,0,0,0-8.144-8.144c-2.316-.131-9.258-.131-11.575,0a7.76,7.76,0,0,0-8.144,8.138c-.131,2.316-.131,9.258,0,11.575a7.769,7.769,0,0,0,8.144,8.144c2.316.131,9.258.131,11.575,0a7.769,7.769,0,0,0,8.144-8.144C124.218,113.32,124.218,106.384,124.087,104.068Zm-2.992,14.054a4.734,4.734,0,0,1-2.667,2.667c-1.847.732-6.229.563-8.269.563s-6.429.163-8.269-.563a4.734,4.734,0,0,1-2.667-2.667c-.732-1.847-.563-6.229-.563-8.269s-.163-6.429.563-8.269a4.734,4.734,0,0,1,2.667-2.667c1.847-.732,6.229-.563,8.269-.563s6.429-.163,8.269.563a4.734,4.734,0,0,1,2.667,2.667c.732,1.847.563,6.229.563,8.269S121.827,116.281,121.094,118.121Z" transform="translate(-96.125 -95.825)" fill="#fff"/>
</svg>
