<svg xmlns="http://www.w3.org/2000/svg" xmlns:xlink="http://www.w3.org/1999/xlink" width="375.905" height="163.626" viewBox="0 0 375.905 163.626">
  <defs>
    <clipPath id="clip-path">
      <rect id="長方形_3" data-name="長方形 3" width="375.905" height="163.626"/>
    </clipPath>
  </defs>
  <g id="グループ_1" data-name="グループ 1" clip-path="url(#clip-path)">
    <path id="パス_1" data-name="パス 1" d="M168.752,103a100.82,100.82,0,0,1,19.378-.242c14.724,1.454,28.429,7.344,42.463,11.595,14.753,4.469,30.3,5.8,45.675,5.069a148.226,148.226,0,0,0,21.79-2.641,62.957,62.957,0,0,0,13.625-4.04A36.805,36.805,0,0,0,318.12,109c.708-.508,3.857-3.19,3.692-.74-.218,3.239-4.811,5.647-7.22,7.147a56.531,56.531,0,0,1-11.086,5.266c-7.96,2.807-16.364,4.109-24.718,5.076-14.506,1.677-29.4,2.449-43.768-.712-14.521-3.2-28.4-8.867-42.83-12.428a92.268,92.268,0,0,0-29.017-2.925c-5.68,5.274-12.893,11.043-21.5,11.736-7.8.628-13.012-3.483-6.053-9.088,4.179-3.366,11.995-5.238,17.451-6.27,1.453-.276,3.057-.007,4.136-.973,1.565-1.4,4.832-7.217,6.1-9.286,5.353-8.756,9.885-17.921,15.2-26.692a190.361,190.361,0,0,1,32.166-40.273c8.2-7.689,29.019-25.378,41.516-16.7,9.948,6.909-1.6,19.831-7.551,25.667-15.663,15.359-36.4,26.731-56.377,37.066L177.937,90.209Zm70.26-68.126c4.054-3.944,12.337-12.49,11.047-18.136-.438-1.921-2.744-2.535-4.675-2.327-9.611,1.033-25.674,17.764-31.659,24.523a183.2,183.2,0,0,0-21.058,28.7l13.008-7.656c11.485-7.687,23.6-15.64,33.337-25.107m-85.656,75.253c-3.107-.13-14.756,3.561-15.561,6.13-.356,1.139,1.432,1.757,2.491,1.734,4.243-.09,10.664-4.852,13.07-7.864" transform="translate(53.954 3.993)"/>
    <path id="パス_2" data-name="パス 2" d="M89.724,74.311c11.073,10.646,9.869,33.044,25.077,38.013,23.4,7.648,66.645-6.408,72.454-6.582.847-.025,3.529-.905,3.07.553-.363,1.149-4.921,2.575-6.285,2.848-6.177,1.239-47.718,17.125-76.5,8.032-20.92-6.609-14.507-28.251-25.825-42.529-1.814-.331-6.971-.593-5.51-3.276.673-1.236,4.595-.968,6-1.184C99.967,67.456,121.232,52.4,122.7,35.435c2.19-25.364-37.264-7.88-49.367-1.812C61.678,39.466,40.563,52.169,33.408,62.064c-7.89,10.916,2.568,16.234,13.35,10.557,1.209-.636,2.653-2.034,3.654-2.466.422-.182.645-.358,1,.058.667.916-1.174,3.1-1.837,3.829-11.3,12.387-37.152,5.883-26.586-12.832C33.566,42.467,74.369,21.05,96.991,17.117c17.311-3.011,38.379-.1,37.021,19.7-1.3,18.857-23.806,36.082-44.289,37.5" transform="translate(8.357 6.565)"/>
    <path id="パス_3" data-name="パス 3" d="M200.478,27c-4.4.094-7.943,3.939-10.338,6.883-7.97,9.8-15.928,23.712-22.141,34.627a105.983,105.983,0,0,0-6.7,12.833c-.586,1.486-2.445,5.369-.816,6.527,2.044,1.061,4.661-.762,6.233-1.948,1.053-.8,5.317-5.823,6.609-5.008.664,1.092-.369,2.32-1.006,3.308-2.935,4.545-11.507,12.358-17.928,9.868-2.794-1.084-3.284-3.957-3.564-6.361-.044-.374.253-.755-.421-.645-4.9,4.618-12.608,11.617-20.456,8.727-4.545-1.674-5.174-5.25-5.238-9.243-6.6,4.278-13.556,9.058-21.786,10.452-6.651,1.128-13.663-.267-15.464-6.831C84.038,77.725,101.8,59.557,114.975,57.253c9.407-1.646,14.334,4.138,10.128,11.879-3.561,6.55-12.7,11.581-20.459,13.184-2.21.457-4.488.529-6.672,1.057-1.624,4.307-.025,8.371,5.657,8.091,6.616-.327,16.7-6.455,21.514-10.436,2.745-2.272,3.426-4.151,5.414-6.767,4.811-6.334,20.546-21.458,30.067-15.656.543.332,1.434,1.644,2.048,1.282.481-.283,4.656-7.86,5.426-9.079,4.987-7.9,15.457-24.939,26.492-26.1,2.1-.221,5.829-.234,5.887,2.29M100.024,78.317c6.365-.486,13.518-4.669,17.149-9.3,3.781-4.825,3.405-10.707-4.257-5.863-5.535,3.5-10.136,9.7-12.893,15.167m55.643-16.178c-7.225.847-19.226,17.276-20.294,23.382-.514,2.939.677,4.693,4.219,4.024,6.73-1.271,16.488-16.443,18.992-21.968,1.267-2.8,1.682-5.978-2.917-5.439" transform="translate(35.477 10.035)"/>
    <path id="パス_4" data-name="パス 4" d="M231.559,59.539c.674.674,16.288-7.549,17.873-8.449,5.685-3.228,10.657-7.81,18.281-7.072,5.317.515,10.874,6.295,10.874,11.015v5.319a39.969,39.969,0,0,0,16.938-6.828c1.458-.991,4.956-4.317,4.057.352-.916,4.771-10.768,9.207-15.5,10.429-2.325.6-4.758.791-7.016,1.372-3.781,8.377-10.225,16.357-19.238,20.729-12.622,6.123-26.718,1.653-24.041-12.742.915-4.918,3.359-7.532,5.466-11.755.108-.218.525-.572.094-.733l-8.543,3.007c-3.519,9.893-15.062,23.822-27.5,24.81C187.6,90.243,183.969,79.458,188.965,68c3.924-9,20.308-25.14,32.025-23.981,4.789.474,10.569,5.916,10.569,10.2Zm-9.478,1.08c1.288-2.9,2.142-16.485-4.721-11.987-5.943,3.894-2.582,12.207,4.721,11.987M266.3,47.861c-2.948.4-5.042,4.16-4.78,6.6.4,3.771,3.566,5.725,7.463,6.389.578-.1,1.33-4.778,1.358-5.543.084-2.255-.408-7.935-4.041-7.444M209.57,55.722c-.353-.384-1.567,1.306-1.774,1.55-3.856,4.549-10.933,15.336-11.068,20.95-.094,3.9,2.078,7.013,6.861,6.111C211.1,82.918,218.8,70.39,220.568,64.177c-4.93-.3-11.1-3.532-11-8.454m47.333,0c-.714-.176-.515.163-.7.349-5.365,5.445-13.874,16.773-12.656,24.264.653,4.022,4.592,5.11,8.471,3.616,7.1-2.728,13.275-13.5,15.573-19.775-4.776-.184-10.937-3.673-10.691-8.454" transform="translate(76.177 17.911)"/>
    <path id="パス_5" data-name="パス 5" d="M106.553,28.239c1.24,0,2.382.619,2.439,1.757.051.992-5.231,5.127-6.327,6.233-20.318,20.511-26.8,53.4-54.239,66.124-26.841,12.446-30.864-4.664-42.8-8.837-1.25-.436-7.27-1.8-5.186-3.48.9-.726,5.19-.173,6.6.032,13.122,1.9,5.388,19.465,35.166,8.895,23.375-8.3,25.38-38.536,41.494-56.351,3.529-3.9,12.152-14.378,22.854-14.373" transform="translate(0 11.511)"/>
    <path id="パス_6" data-name="パス 6" d="M65,102.436l1.189.329L60.506,110.2l-.263-.075L59.4,102.6l-4.628,6.011-.255-.072-1.039-9.293,1.2.334.7,6.375,3.9-5.1,1.126.311.731,6.384Z" transform="translate(21.798 40.456)"/>
    <path id="パス_7" data-name="パス 7" d="M65.035,102.184l4.769,1.128-.255,1.071-3.563-.843-.608,2.565,3.443.814L68.568,108l-3.444-.814-.618,2.611,3.678.869-.252,1.073-4.883-1.154Z" transform="translate(25.701 41.654)"/>
    <path id="パス_8" data-name="パス 8" d="M69.8,103.4l7.068,1.474-.225,1.077L73.7,105.34l-1.541,7.4-1.216-.256,1.54-7.393-2.9-.6Z" transform="translate(28.363 42.152)"/>
    <path id="パス_9" data-name="パス 9" d="M78.7,110.14l-.821-.732a4.253,4.253,0,0,1-1.047-1.272,2.021,2.021,0,0,1-.152-1.251,2.131,2.131,0,0,1,1-1.5,2.654,2.654,0,0,1,1.926-.3,3.5,3.5,0,0,1,1.843.957l-.252,1.382a2.854,2.854,0,0,0-1.817-1.247,1.661,1.661,0,0,0-1.029.1.85.85,0,0,0-.512.635,1.111,1.111,0,0,0,.151.767,3.565,3.565,0,0,0,.78.868l.829.721a2.769,2.769,0,0,1,1.122,2.648,2.218,2.218,0,0,1-.99,1.537,2.563,2.563,0,0,1-1.9.312,3.786,3.786,0,0,1-2.151-1.2l.283-1.546a2.9,2.9,0,0,0,2.052,1.667,1.455,1.455,0,0,0,1.009-.144,1.012,1.012,0,0,0,.528-.729q.141-.775-.85-1.676" transform="translate(30.85 42.814)"/>
    <path id="パス_10" data-name="パス 10" d="M88.683,106.808l1.229.193-.767,4.846a5.81,5.81,0,0,1-.377,1.46,3.237,3.237,0,0,1-.487.778,2.687,2.687,0,0,1-.611.514,3.965,3.965,0,0,1-2.79.453,4.008,4.008,0,0,1-2.539-1.289,2.872,2.872,0,0,1-.421-.684,3.11,3.11,0,0,1-.218-.869,6.144,6.144,0,0,1,.1-1.54l.764-4.83,1.229.191-.767,4.848a3.667,3.667,0,0,0,.01,1.715,2.011,2.011,0,0,0,.718.888,2.992,2.992,0,0,0,1.281.5,2.742,2.742,0,0,0,1.862-.289,1.807,1.807,0,0,0,.633-.638,4.56,4.56,0,0,0,.384-1.4Z" transform="translate(33.298 43.145)"/>
    <rect id="長方形_1" data-name="長方形 1" width="8.642" height="1.237" transform="translate(125.791 159.232) rotate(-82.22)"/>
    <path id="パス_11" data-name="パス 11" d="M93.409,107.463l7.168.857-.131,1.092-2.991-.358-.9,7.5-1.234-.148.9-7.5-2.942-.352Z" transform="translate(38.024 43.807)"/>
    <path id="パス_12" data-name="パス 12" d="M102.719,113.5l-.88-.663a4.244,4.244,0,0,1-1.147-1.182,2,2,0,0,1-.253-1.234,2.126,2.126,0,0,1,.868-1.578,2.647,2.647,0,0,1,1.895-.453,3.47,3.47,0,0,1,1.914.8l-.139,1.4a2.865,2.865,0,0,0-1.91-1.1,1.694,1.694,0,0,0-1.021.182.852.852,0,0,0-.457.677,1.1,1.1,0,0,0,.214.75,3.6,3.6,0,0,0,.847.8l.885.652a2.763,2.763,0,0,1,1.336,2.549,2.207,2.207,0,0,1-.859,1.61,2.537,2.537,0,0,1-1.865.467,3.805,3.805,0,0,1-2.242-1.013l.155-1.565a2.9,2.9,0,0,0,2.183,1.493,1.461,1.461,0,0,0,1-.225,1.015,1.015,0,0,0,.465-.767q.078-.788-.984-1.6" transform="translate(40.726 44.178)"/>
    <path id="パス_13" data-name="パス 13" d="M110.534,109.168l4.6.32-.076,1.1-3.364-.231-.166,2.406,3.364.234-.076,1.1-3.364-.231-.277,4.017-1.234-.086Z" transform="translate(44.815 44.502)"/>
    <path id="パス_14" data-name="パス 14" d="M119.2,109.6l.869.041,3.44,8.872-1.264-.063-1.025-2.614-3.681-.182-1.2,2.5-1.271-.063Zm1.567,5.111-1.237-3.2-1.446,3.063Z" transform="translate(46.903 44.679)"/>
    <path id="パス_15" data-name="パス 15" d="M130.88,116.718l-.037,1.358a6.461,6.461,0,0,1-3.162.657,4.822,4.822,0,0,1-2.439-.649,4.25,4.25,0,0,1-1.551-1.644,4.329,4.329,0,0,1-.528-2.224,4.216,4.216,0,0,1,1.43-3.135,4.62,4.62,0,0,1,3.353-1.2,7.827,7.827,0,0,1,3,.793l-.037,1.33a5.949,5.949,0,0,0-2.936-.946,3.436,3.436,0,0,0-2.492.87,3.31,3.31,0,0,0-.142,4.685,3.45,3.45,0,0,0,2.442.981,5.61,5.61,0,0,0,3.094-.88" transform="translate(50.206 44.793)"/>
    <path id="パス_16" data-name="パス 16" d="M130.811,110.045l7.218.044-.007,1.1-3.012-.018-.046,7.552-1.244-.008.048-7.552-2.963-.017Z" transform="translate(53.321 44.859)"/>
    <path id="パス_17" data-name="パス 17" d="M142.611,109.942a4.654,4.654,0,0,1,3.356,1.215,4.205,4.205,0,0,1,1.384,3.157,4.135,4.135,0,0,1-1.292,3.186,4.792,4.792,0,0,1-3.37,1.309,4.519,4.519,0,0,1-3.274-1.2,4.177,4.177,0,0,1-1.353-3.118,4.271,4.271,0,0,1,1.257-3.226,4.581,4.581,0,0,1,3.293-1.323m.069,1.177a3.344,3.344,0,0,0-2.423.967,3.157,3.157,0,0,0-.916,2.385,3.1,3.1,0,0,0,1,2.309,3.559,3.559,0,0,0,4.81-.1,3.163,3.163,0,0,0,.929-2.372,3.093,3.093,0,0,0-1.006-2.3,3.276,3.276,0,0,0-2.39-.9" transform="translate(56.279 44.817)"/>
    <path id="パス_18" data-name="パス 18" d="M147.485,118.553l-.336-8.636,2.162-.086a3.136,3.136,0,0,1,2.106.57,2.172,2.172,0,0,1,.839,1.723,2.155,2.155,0,0,1-1.377,2.183,3.73,3.73,0,0,1,.839.712,14.762,14.762,0,0,1,1.177,1.595c.321.477.576.835.767,1.077l.481.6-1.471.058-.4-.555c-.014-.02-.041-.054-.079-.1l-.255-.329-.407-.617-.439-.656a6.448,6.448,0,0,0-.736-.819,2.539,2.539,0,0,0-.593-.432,1.934,1.934,0,0,0-.869-.1l-.321.011.146,3.757ZM148.8,110.9l-.372.014.107,2.727.47-.018a3.529,3.529,0,0,0,1.282-.21,1.22,1.22,0,0,0,.525-.508,1.414,1.414,0,0,0,.166-.745,1.334,1.334,0,0,0-.246-.732,1.15,1.15,0,0,0-.626-.442,4.437,4.437,0,0,0-1.306-.086" transform="translate(59.984 44.77)"/>
    <path id="パス_19" data-name="パス 19" d="M159.479,109.4l1.5-.09-2.943,4.253.272,4.564-1.266.075-.273-4.561-3.426-3.874,1.489-.091,2.486,2.838Z" transform="translate(62.508 44.56)"/>
    <path id="パス_20" data-name="パス 20" d="M164.962,108.854l1.233-.107.759,8.608-1.233.107Z" transform="translate(67.246 44.33)"/>
    <path id="パス_21" data-name="パス 21" d="M175.5,108.006l1.168-.127.925,8.6-1.057.113-6.457-6,.712,6.617-1.156.124-.925-8.591,1-.108,6.512,6.051Z" transform="translate(68.772 43.976)"/>
    <path id="パス_22" data-name="パス 22" d="M180.538,107.387l7.142-1.053.159,1.091-2.98.438,1.1,7.472-1.23.182-1.1-7.472-2.931.431Z" transform="translate(73.595 43.346)"/>
    <path id="パス_23" data-name="パス 23" d="M191.886,105.415a4.64,4.64,0,0,1,3.505.67,4.208,4.208,0,0,1,1.862,2.9,4.149,4.149,0,0,1-.777,3.349,4.776,4.776,0,0,1-3.122,1.82,4.517,4.517,0,0,1-3.422-.669,4.18,4.18,0,0,1-1.826-2.867,4.268,4.268,0,0,1,.735-3.383,4.574,4.574,0,0,1,3.045-1.821m.252,1.146A3.369,3.369,0,0,0,189.9,107.9a3.162,3.162,0,0,0-.529,2.5,3.1,3.1,0,0,0,1.346,2.124,3.551,3.551,0,0,0,4.737-.852,3.168,3.168,0,0,0,.543-2.489,3.1,3.1,0,0,0-1.353-2.109,3.293,3.293,0,0,0-2.5-.511" transform="translate(76.648 42.935)"/>
    <path id="パス_24" data-name="パス 24" d="M201.267,103.8l1.513-.317-2.832,4.779,5.5,3.494-1.654.343-5.193-3.277.868,4.179-1.212.251-1.761-8.46,1.213-.253.8,3.871Z" transform="translate(80.099 42.185)"/>
    <path id="パス_25" data-name="パス 25" d="M208.943,102.131l1.46-.349-2.156,4.7,1.063,4.445-1.233.3-1.063-4.445-4.051-3.216,1.451-.349,2.943,2.361Z" transform="translate(82.736 41.491)"/>
    <path id="パス_26" data-name="パス 26" d="M214.073,100.458a4.649,4.649,0,0,1,3.554.329,4.209,4.209,0,0,1,2.133,2.708,4.14,4.14,0,0,1-.45,3.407,4.777,4.777,0,0,1-2.932,2.114,4.508,4.508,0,0,1-3.471-.335A4.179,4.179,0,0,1,210.813,106a4.272,4.272,0,0,1,.407-3.44,4.561,4.561,0,0,1,2.853-2.106m.362,1.119a3.343,3.343,0,0,0-2.1,1.546,3.15,3.15,0,0,0-.287,2.537,3.1,3.1,0,0,0,1.544,1.986,3.559,3.559,0,0,0,4.631-1.3,3.164,3.164,0,0,0,.3-2.53,3.092,3.092,0,0,0-1.55-1.969,3.282,3.282,0,0,0-2.541-.266" transform="translate(85.86 40.867)"/>
    <path id="パス_27" data-name="パス 27" d="M105.346,6.42l-.987-.484a4.211,4.211,0,0,1-1.349-.949,2,2,0,0,1-.481-1.163,2.126,2.126,0,0,1,.559-1.716,2.64,2.64,0,0,1,1.775-.8,3.475,3.475,0,0,1,2.033.427l.124,1.4a2.846,2.846,0,0,0-2.082-.715,1.669,1.669,0,0,0-.967.369.849.849,0,0,0-.324.747,1.1,1.1,0,0,0,.35.7,3.58,3.58,0,0,0,.984.628l.991.472a2.773,2.773,0,0,1,1.789,2.255,2.2,2.2,0,0,1-.542,1.743,2.546,2.546,0,0,1-1.744.809,3.8,3.8,0,0,1-2.393-.576L102.942,8a2.9,2.9,0,0,0,2.424,1.056,1.455,1.455,0,0,0,.936-.407,1.019,1.019,0,0,0,.311-.845c-.046-.522-.469-.987-1.267-1.388" transform="translate(41.791 0.528)"/>
    <path id="パス_28" data-name="パス 28" d="M109.385.986,110.62.9l.624,8.619-1.235.087Z" transform="translate(44.59 0.367)"/>
    <path id="パス_29" data-name="パス 29" d="M121.094.393l1.174-.061.443,8.63-1.061.055-6.112-6.351.341,6.648-1.161.061-.443-8.63,1-.052,6.164,6.4Z" transform="translate(46.583 0.135)"/>
    <path id="パス_30" data-name="パス 30" d="M131.568,6.7l.034,1.361a6.477,6.477,0,0,1-3.122.819,4.849,4.849,0,0,1-2.47-.519A4.283,4.283,0,0,1,124.373,6.8a4.33,4.33,0,0,1-.642-2.19A4.224,4.224,0,0,1,125,1.4,4.616,4.616,0,0,1,128.281.032a7.785,7.785,0,0,1,3.042.635L131.357,2a5.945,5.945,0,0,0-2.984-.791,3.423,3.423,0,0,0-2.441,1,3.111,3.111,0,0,0-.921,2.372,3.078,3.078,0,0,0,1.022,2.313,3.443,3.443,0,0,0,2.492.854A5.6,5.6,0,0,0,131.568,6.7" transform="translate(50.438 0.013)"/>
    <path id="パス_31" data-name="パス 31" d="M132.871.03l4.9-.03.007,1.1-3.661.021.017,2.637,3.537-.021.007,1.1-3.539.023.017,2.686,3.781-.025.007,1.1-5.018.031Z" transform="translate(54.164 0)"/>
    <rect id="長方形_2" data-name="長方形 2" width="8.643" height="1.237" transform="translate(205.552 8.876) rotate(-88.241)"/>
    <path id="パス_32" data-name="パス 32" d="M153.332,9.194l-.714-.935a7.11,7.11,0,0,0,1.748-1.384,4.684,4.684,0,0,0,1.047-1.722,2.531,2.531,0,0,1-1.4.294,2.263,2.263,0,0,1-1.66-.819,2.462,2.462,0,0,1-.617-1.8,2.469,2.469,0,0,1,.846-1.783,2.679,2.679,0,0,1,3.836.331,3.3,3.3,0,0,1,.664,2.306A6.082,6.082,0,0,1,155.949,6.8a7.34,7.34,0,0,1-2.617,2.392m2.385-5.256a5.938,5.938,0,0,0,.107-.639,1.794,1.794,0,0,0-.355-1.244,1.366,1.366,0,0,0-1.047-.528,1.321,1.321,0,0,0-1.014.352,1.418,1.418,0,0,0-.443,1,1.3,1.3,0,0,0,.377.991,1.427,1.427,0,0,0,1,.46,2.379,2.379,0,0,0,1.377-.39" transform="translate(61.854 0.157)"/>
    <path id="パス_33" data-name="パス 33" d="M159.872.807l3.826.272-.079,1.1-2.7-.193-.155,2.178c.086,0,.176,0,.266.006a2.887,2.887,0,0,1,2.006.909,2.559,2.559,0,0,1,.671,2A2.612,2.612,0,0,1,162.765,9a2.888,2.888,0,0,1-2.126.617,4.425,4.425,0,0,1-2-.652l.09-1.27a3.382,3.382,0,0,0,1.778.733,1.938,1.938,0,0,0,1.337-.36,1.435,1.435,0,0,0,.114-2.262,2.23,2.23,0,0,0-1.4-.562,2.657,2.657,0,0,0-1.009.053Z" transform="translate(64.668 0.329)"/>
    <path id="パス_34" data-name="パス 34" d="M167.186,10.151l-.674-.961a7.1,7.1,0,0,0,1.8-1.309A4.626,4.626,0,0,0,169.434,6.2a2.546,2.546,0,0,1-1.406.235,2.267,2.267,0,0,1-1.623-.887,2.458,2.458,0,0,1-.542-1.829,2.479,2.479,0,0,1,.918-1.745,2.527,2.527,0,0,1,1.906-.579A2.555,2.555,0,0,1,170.6,2.467a3.3,3.3,0,0,1,.567,2.331A6.067,6.067,0,0,1,169.9,7.872a7.328,7.328,0,0,1-2.715,2.279M169.789,5a5.8,5.8,0,0,0,.134-.635,1.79,1.79,0,0,0-.3-1.257,1.36,1.36,0,0,0-1.025-.574,1.332,1.332,0,0,0-1.026.314,1.394,1.394,0,0,0-.484.975,1.3,1.3,0,0,0,.335,1.006,1.421,1.421,0,0,0,.98.5A2.349,2.349,0,0,0,169.789,5" transform="translate(67.607 0.566)"/>
  </g>
</svg>
