<svg xmlns="http://www.w3.org/2000/svg" width="30" height="29.999" viewBox="0 0 30 29.999">
  <path id="パス_38" data-name="パス 38" d="M73.46,65.453a2.381,2.381,0,0,0-2.819-1.383l-.322.088c-3.785,1.031-7.02,4.7-6.077,9.165a26.653,26.653,0,0,0,20.5,20.5c4.471.949,8.133-2.291,9.165-6.077l.088-.322A2.372,2.372,0,0,0,92.615,84.6l-5.7-2.373a2.377,2.377,0,0,0-2.754.691L81.9,85.687a20.067,20.067,0,0,1-9.34-9.669l2.59-2.109a2.381,2.381,0,0,0,.691-2.754Z" transform="translate(-64.077 -63.988)" fill="#264898"/>
</svg>
