<svg xmlns="http://www.w3.org/2000/svg" width="18.321" height="25.947" viewBox="0 0 18.321 25.947">
  <path id="パス_65" data-name="パス 65" d="M128,68.579A4.58,4.58,0,0,1,132.579,64h9.158a4.58,4.58,0,0,1,4.579,4.579V80.79a4.577,4.577,0,0,1-2.838,4.236l2.571,3.038a1.144,1.144,0,1,1-1.746,1.479l-3.53-4.174h-7.217l-3.53,4.174a1.144,1.144,0,0,1-1.746-1.479l2.571-3.038A4.568,4.568,0,0,1,128,80.79Zm3.053,1.526v4.579a1.525,1.525,0,0,0,1.526,1.526h3.434V68.579h-3.434A1.525,1.525,0,0,0,131.053,70.105Zm7.25,6.105h3.434a1.525,1.525,0,0,0,1.526-1.526V70.105a1.525,1.525,0,0,0-1.526-1.526H138.3Zm-5.724,6.105a1.526,1.526,0,1,0-1.526-1.526A1.525,1.525,0,0,0,132.579,82.316Zm10.684-1.526a1.526,1.526,0,1,0-1.526,1.526A1.525,1.525,0,0,0,143.263,80.79Z" transform="translate(-128 -64)" fill="#264898"/>
</svg>
