<svg xmlns="http://www.w3.org/2000/svg" width="38.265" height="31.888" viewBox="0 0 38.265 31.888">
  <path id="パス_71" data-name="パス 71" d="M36.252,96A4.256,4.256,0,0,0,32,100.252v19.133a4.256,4.256,0,0,0,4.252,4.252h.219a5.849,5.849,0,0,0,11.254,0h6.816a5.849,5.849,0,0,0,11.254,0h.219a4.256,4.256,0,0,0,4.252-4.252v-9.746a4.253,4.253,0,0,0-1.242-3.009l-3.009-3.009A4.253,4.253,0,0,0,63,102.378H59.636v-2.126A4.256,4.256,0,0,0,55.384,96Zm29.762,13.639v3.368H59.636v-6.378H63ZM42.1,119.384a2.657,2.657,0,1,1-2.657,2.657A2.657,2.657,0,0,1,42.1,119.384Zm15.412,2.657a2.657,2.657,0,1,1,2.657,2.657A2.657,2.657,0,0,1,57.51,122.042Zm-5.248-13.22L47.479,113.6a1.592,1.592,0,0,1-2.252-2.252l2.059-2.059H40.5a1.594,1.594,0,0,1,0-3.189h6.783l-2.059-2.059a1.592,1.592,0,0,1,2.252-2.252l4.783,4.783a1.588,1.588,0,0,1,0,2.252Z" transform="translate(-32 -96)" fill="#264898"/>
</svg>
