<svg xmlns="http://www.w3.org/2000/svg" width="31.369" height="22.054" viewBox="0 0 31.369 22.054">
  <path id="パス_35" data-name="パス 35" d="M77.709,131.452a3.927,3.927,0,0,0-2.774-2.791c-2.441-.66-12.25-.66-12.25-.66s-9.809,0-12.256.66a3.937,3.937,0,0,0-2.774,2.791,44.417,44.417,0,0,0,0,15.2,3.886,3.886,0,0,0,2.774,2.745c2.447.66,12.256.66,12.256.66s9.809,0,12.256-.66a3.886,3.886,0,0,0,2.774-2.745,44.417,44.417,0,0,0,0-15.2ZM59.474,143.713v-9.327l8.2,4.663Z" transform="translate(-47 -128)" fill="#fff"/>
</svg>
