<svg id="グループ_603" data-name="グループ 603" xmlns="http://www.w3.org/2000/svg" xmlns:xlink="http://www.w3.org/1999/xlink" width="176.867" height="76.987" viewBox="0 0 176.867 76.987">
  <defs>
    <clipPath id="clip-path">
      <rect id="長方形_3" data-name="長方形 3" width="176.867" height="76.988" fill="#fff"/>
    </clipPath>
  </defs>
  <g id="グループ_1" data-name="グループ 1" clip-path="url(#clip-path)">
    <path id="パス_1" data-name="パス 1" d="M149.481,53.648a47.437,47.437,0,0,1,9.117-.114c6.928.684,13.376,3.455,19.979,5.455a63.765,63.765,0,0,0,21.491,2.385,69.742,69.742,0,0,0,10.253-1.242,29.622,29.622,0,0,0,6.41-1.9,17.315,17.315,0,0,0,3.029-1.76c.333-.239,1.815-1.5,1.737-.348-.1,1.524-2.264,2.657-3.4,3.363a26.6,26.6,0,0,1-5.216,2.478,53.245,53.245,0,0,1-11.63,2.388c-6.825.789-13.834,1.152-20.593-.335-6.832-1.5-13.361-4.172-20.152-5.848a43.413,43.413,0,0,0-13.653-1.376c-2.672,2.482-6.066,5.2-10.118,5.522-3.672.3-6.122-1.639-2.848-4.276,1.966-1.584,5.644-2.464,8.211-2.95.684-.13,1.439,0,1.946-.458a31.492,31.492,0,0,0,2.869-4.369c2.519-4.12,4.651-8.432,7.153-12.559A89.568,89.568,0,0,1,169.2,18.754c3.856-3.618,13.654-11.941,19.534-7.856,4.681,3.251-.752,9.331-3.553,12.077-7.37,7.226-17.125,12.577-26.526,17.44L153.8,47.631Zm33.058-32.054c1.907-1.856,5.8-5.877,5.2-8.533-.206-.9-1.291-1.193-2.2-1.095-4.522.486-12.08,8.358-14.9,11.538a86.2,86.2,0,0,0-9.908,13.505l6.12-3.6c5.4-3.617,11.106-7.359,15.685-11.813M142.236,57c-1.462-.061-6.943,1.676-7.322,2.884-.168.536.674.827,1.172.816,2-.042,5.018-2.283,6.15-3.7" transform="translate(-44.695 -3.308)" fill="#fff"/>
    <path id="パス_2" data-name="パス 2" d="M53.07,43.492c5.21,5.009,4.643,15.548,11.8,17.886,11.012,3.6,31.357-3.015,34.09-3.1.4-.012,1.66-.426,1.444.26-.171.54-2.315,1.211-2.957,1.34C94.541,60.463,75,67.938,61.453,63.66c-9.843-3.11-6.826-13.293-12.151-20.01-.854-.156-3.28-.279-2.592-1.541.317-.582,2.162-.456,2.823-.557C57.89,40.266,67.9,33.183,68.584,25.2c1.031-11.934-17.533-3.708-23.228-.852C39.875,27.1,29.94,33.073,26.573,37.73c-3.712,5.136,1.208,7.638,6.281,4.967.569-.3,1.248-.957,1.719-1.16.2-.085.3-.168.468.027.314.431-.552,1.46-.864,1.8-5.316,5.828-17.48,2.768-12.509-6.038s24.177-18.9,34.821-20.746c8.145-1.417,18.058-.046,17.419,9.267-.609,8.872-11.2,16.977-20.838,17.643" transform="translate(-6.923 -5.439)" fill="#fff"/>
    <path id="パス_3" data-name="パス 3" d="M140.408,25.739c-2.071.044-3.737,1.853-4.864,3.239-3.75,4.611-7.494,11.157-10.417,16.292a49.869,49.869,0,0,0-3.154,6.038c-.276.7-1.15,2.526-.384,3.071.962.5,2.193-.358,2.933-.917.5-.374,2.5-2.74,3.11-2.356.313.514-.174,1.091-.474,1.556-1.381,2.139-5.414,5.814-8.435,4.643-1.315-.51-1.545-1.862-1.677-2.993-.021-.176.119-.355-.2-.3-2.3,2.173-5.932,5.466-9.625,4.106-2.139-.787-2.435-2.47-2.464-4.349-3.108,2.013-6.378,4.262-10.251,4.918-3.129.531-6.428-.126-7.276-3.214-1.609-5.864,6.746-14.413,12.947-15.5,4.426-.774,6.744,1.947,4.765,5.589-1.676,3.082-5.975,5.449-9.626,6.2-1.04.215-2.111.249-3.139.5-.764,2.027-.012,3.939,2.662,3.807,3.113-.154,7.858-3.037,10.123-4.91a14.681,14.681,0,0,0,2.547-3.184c2.264-2.98,9.667-10.1,14.147-7.366.256.156.675.774.964.6.227-.133,2.191-3.7,2.553-4.272,2.347-3.717,7.273-11.734,12.465-12.28.989-.1,2.743-.11,2.77,1.078M93.144,49.884a12.492,12.492,0,0,0,8.069-4.378c1.779-2.27,1.6-5.038-2-2.759a18.64,18.64,0,0,0-6.066,7.136m26.18-7.612c-3.4.4-9.046,8.129-9.548,11-.242,1.383.319,2.208,1.985,1.894,3.167-.6,7.758-7.736,8.936-10.336.6-1.316.791-2.813-1.372-2.559" transform="translate(-29.389 -8.313)" fill="#fff"/>
    <path id="パス_4" data-name="パス 4" d="M207.9,51.279c.317.317,7.664-3.552,8.409-3.975,2.675-1.519,5.014-3.674,8.6-3.327,2.5.242,5.116,2.962,5.116,5.183v2.5a18.806,18.806,0,0,0,7.97-3.213c.686-.466,2.332-2.031,1.909.166-.431,2.245-5.067,4.332-7.292,4.907-1.094.283-2.239.372-3.3.646a19.7,19.7,0,0,1-9.052,9.753c-5.939,2.881-12.571.778-11.312-6,.431-2.314,1.58-3.544,2.572-5.531.051-.1.247-.269.044-.345l-4.02,1.415c-1.656,4.655-7.087,11.208-12.937,11.673-7.391.589-9.1-4.486-6.75-9.876,1.847-4.235,9.555-11.829,15.068-11.283,2.253.223,4.973,2.784,4.973,4.8Zm-4.459.508c.606-1.366,1.008-7.756-2.221-5.64-2.8,1.832-1.215,5.744,2.221,5.64m20.8-6a3.076,3.076,0,0,0-2.249,3.1c.19,1.774,1.678,2.694,3.512,3.006.272-.046.626-2.248.639-2.608.04-1.061-.192-3.733-1.9-3.5m-26.69,3.7c-.166-.181-.737.615-.835.729-1.814,2.141-5.144,7.216-5.208,9.857-.044,1.835.978,3.3,3.228,2.875,3.535-.666,7.159-6.56,7.989-9.484-2.319-.14-5.22-1.662-5.175-3.978m22.271,0c-.336-.083-.242.077-.328.164-2.524,2.562-6.528,7.892-5.955,11.416.307,1.892,2.16,2.4,3.986,1.7,3.339-1.284,6.246-6.353,7.327-9.3-2.247-.087-5.146-1.728-5.03-3.978" transform="translate(-63.105 -14.838)" fill="#fff"/>
    <path id="パス_5" data-name="パス 5" d="M50.134,28.239c.583,0,1.121.291,1.148.827.024.467-2.461,2.412-2.977,2.933C38.745,41.649,35.7,57.122,22.785,63.11c-12.629,5.856-14.522-2.194-20.14-4.158C2.056,58.747-.776,58.1.2,57.315c.425-.342,2.442-.081,3.107.015,6.174.9,2.535,9.158,16.546,4.185,11-3.9,11.941-18.131,19.524-26.514,1.66-1.835,5.718-6.765,10.753-6.763" transform="translate(0 -9.536)" fill="#fff"/>
    <path id="パス_6" data-name="パス 6" d="M58.9,100.746l.56.155-2.674,3.5-.124-.035-.4-3.541-2.178,2.828-.12-.034-.489-4.373.565.157.331,3,1.836-2.4.53.146.344,3Z" transform="translate(-18.058 -33.514)" fill="#fff"/>
    <path id="パス_7" data-name="パス 7" d="M63.983,102.184l2.244.531-.12.5-1.676-.4-.286,1.207,1.62.383-.119.507-1.621-.383-.291,1.229,1.731.409-.119.5-2.3-.543Z" transform="translate(-21.291 -34.506)" fill="#fff"/>
    <path id="パス_8" data-name="パス 8" d="M69.683,103.4l3.325.693-.106.507-1.388-.289-.725,3.48-.572-.121.725-3.478-1.364-.284Z" transform="translate(-23.496 -34.919)" fill="#fff"/>
    <path id="パス_9" data-name="パス 9" d="M77.1,107.434l-.386-.344a2,2,0,0,1-.493-.6.951.951,0,0,1-.072-.589,1,1,0,0,1,.469-.706,1.249,1.249,0,0,1,.906-.14,1.648,1.648,0,0,1,.867.45l-.119.65a1.343,1.343,0,0,0-.855-.587.782.782,0,0,0-.484.045.4.4,0,0,0-.241.3.523.523,0,0,0,.071.361,1.678,1.678,0,0,0,.367.409l.39.339a1.3,1.3,0,0,1,.528,1.246,1.043,1.043,0,0,1-.466.723,1.206,1.206,0,0,1-.893.147,1.781,1.781,0,0,1-1.012-.562l.133-.727a1.366,1.366,0,0,0,.966.784.685.685,0,0,0,.475-.068.476.476,0,0,0,.248-.343q.067-.365-.4-.789" transform="translate(-25.556 -35.467)" fill="#fff"/>
    <path id="パス_10" data-name="パス 10" d="M84.977,106.3l.578.091-.361,2.28a2.734,2.734,0,0,1-.177.687,1.522,1.522,0,0,1-.229.366,1.264,1.264,0,0,1-.287.242,1.866,1.866,0,0,1-1.313.213,1.886,1.886,0,0,1-1.195-.607,1.351,1.351,0,0,1-.2-.322,1.463,1.463,0,0,1-.1-.409,2.89,2.89,0,0,1,.048-.725l.36-2.272.578.09-.361,2.281a1.726,1.726,0,0,0,0,.807.946.946,0,0,0,.338.418,1.407,1.407,0,0,0,.6.233,1.29,1.29,0,0,0,.876-.136.85.85,0,0,0,.3-.3,2.146,2.146,0,0,0,.181-.659Z" transform="translate(-27.584 -35.741)" fill="#fff"/>
    <rect id="長方形_1" data-name="長方形 1" width="4.066" height="0.582" transform="translate(59.186 74.92) rotate(-82.22)" fill="#fff"/>
    <path id="パス_11" data-name="パス 11" d="M93.34,107.463l3.372.4-.062.514-1.407-.168-.423,3.529-.581-.07.423-3.529-1.384-.166Z" transform="translate(-31.499 -36.289)" fill="#fff"/>
    <path id="パス_12" data-name="パス 12" d="M101.229,110.787l-.414-.312a2,2,0,0,1-.54-.556.939.939,0,0,1-.119-.581,1,1,0,0,1,.409-.742,1.246,1.246,0,0,1,.891-.213,1.632,1.632,0,0,1,.9.378l-.066.658a1.348,1.348,0,0,0-.9-.515.8.8,0,0,0-.48.085.4.4,0,0,0-.215.319.516.516,0,0,0,.1.353,1.691,1.691,0,0,0,.4.376l.417.307a1.3,1.3,0,0,1,.629,1.2,1.038,1.038,0,0,1-.4.758,1.194,1.194,0,0,1-.878.22,1.79,1.79,0,0,1-1.055-.477l.073-.736a1.366,1.366,0,0,0,1.027.7.687.687,0,0,0,.468-.106.477.477,0,0,0,.219-.361q.037-.371-.463-.754" transform="translate(-33.737 -36.597)" fill="#fff"/>
    <path id="パス_13" data-name="パス 13" d="M110.218,109.168l2.163.15-.036.516-1.583-.109-.078,1.132,1.583.11-.036.516-1.583-.109-.13,1.89-.581-.04Z" transform="translate(-37.125 -36.865)" fill="#fff"/>
    <path id="パス_14" data-name="パス 14" d="M117.006,109.6l.409.019,1.619,4.175-.595-.03-.482-1.23-1.732-.085-.567,1.178-.6-.03Zm.737,2.4-.582-1.5-.68,1.441Z" transform="translate(-38.854 -37.012)" fill="#fff"/>
    <path id="パス_15" data-name="パス 15" d="M126.793,113.1l-.017.639a3.04,3.04,0,0,1-1.488.309,2.269,2.269,0,0,1-1.148-.305,2,2,0,0,1-.73-.774,2.037,2.037,0,0,1-.248-1.046,1.984,1.984,0,0,1,.673-1.475,2.174,2.174,0,0,1,1.578-.563,3.683,3.683,0,0,1,1.413.373l-.017.626a2.8,2.8,0,0,0-1.382-.445,1.617,1.617,0,0,0-1.172.409,1.558,1.558,0,0,0-.067,2.2,1.623,1.623,0,0,0,1.149.462,2.64,2.64,0,0,0,1.456-.414" transform="translate(-41.59 -37.107)" fill="#fff"/>
    <path id="パス_16" data-name="パス 16" d="M130.807,110.045l3.4.021,0,.519-1.417-.009-.022,3.553-.585,0,.023-3.553-1.394-.008Z" transform="translate(-44.171 -37.161)" fill="#fff"/>
    <path id="パス_17" data-name="パス 17" d="M140.2,109.942a2.19,2.19,0,0,1,1.579.572,1.979,1.979,0,0,1,.651,1.486,1.945,1.945,0,0,1-.608,1.5,2.255,2.255,0,0,1-1.586.616,2.126,2.126,0,0,1-1.541-.564,1.965,1.965,0,0,1-.636-1.467,2.009,2.009,0,0,1,.591-1.518,2.155,2.155,0,0,1,1.549-.623m.032.554a1.574,1.574,0,0,0-1.14.455,1.485,1.485,0,0,0-.431,1.122,1.458,1.458,0,0,0,.469,1.086,1.674,1.674,0,0,0,2.263-.045,1.489,1.489,0,0,0,.437-1.116,1.455,1.455,0,0,0-.474-1.08,1.541,1.541,0,0,0-1.125-.422" transform="translate(-46.622 -37.126)" fill="#fff"/>
    <path id="パス_18" data-name="パス 18" d="M147.307,113.933l-.158-4.063,1.017-.04a1.475,1.475,0,0,1,.991.268,1.022,1.022,0,0,1,.395.811,1.014,1.014,0,0,1-.648,1.027,1.756,1.756,0,0,1,.395.335,6.947,6.947,0,0,1,.554.75c.151.225.271.393.361.507l.227.282-.692.027-.187-.261-.037-.048-.12-.155-.191-.29-.207-.309a3.03,3.03,0,0,0-.346-.385,1.2,1.2,0,0,0-.279-.2.91.91,0,0,0-.409-.049l-.151.005.069,1.768Zm.617-3.6-.175.007.05,1.283.221-.009a1.661,1.661,0,0,0,.6-.1.574.574,0,0,0,.247-.239.665.665,0,0,0,.078-.35.628.628,0,0,0-.116-.344.541.541,0,0,0-.295-.208,2.088,2.088,0,0,0-.615-.04" transform="translate(-49.691 -37.088)" fill="#fff"/>
    <path id="パス_19" data-name="パス 19" d="M156.229,109.354l.7-.042-1.385,2,.128,2.147-.6.035-.128-2.146-1.612-1.823.7-.043,1.17,1.335Z" transform="translate(-51.782 -36.913)" fill="#fff"/>
    <path id="パス_20" data-name="パス 20" d="M164.962,108.8l.58-.05.357,4.05-.58.05Z" transform="translate(-55.706 -36.723)" fill="#fff"/>
    <path id="パス_21" data-name="パス 21" d="M171.9,107.939l.55-.06.435,4.044-.5.053-3.038-2.823.335,3.114-.544.058-.435-4.042.469-.051,3.064,2.847Z" transform="translate(-56.971 -36.43)" fill="#fff"/>
    <path id="パス_22" data-name="パス 22" d="M180.538,106.83l3.361-.5.075.513-1.4.206.518,3.516-.579.085-.518-3.516-1.379.2Z" transform="translate(-60.966 -35.908)" fill="#fff"/>
    <path id="パス_23" data-name="パス 23" d="M189.842,105.368a2.183,2.183,0,0,1,1.649.315,1.98,1.98,0,0,1,.876,1.365,1.952,1.952,0,0,1-.366,1.576,2.248,2.248,0,0,1-1.469.856,2.125,2.125,0,0,1-1.61-.315,1.967,1.967,0,0,1-.859-1.349,2.008,2.008,0,0,1,.346-1.592,2.152,2.152,0,0,1,1.433-.857m.119.539a1.585,1.585,0,0,0-1.054.629,1.488,1.488,0,0,0-.249,1.176,1.456,1.456,0,0,0,.633,1,1.671,1.671,0,0,0,2.229-.4,1.49,1.49,0,0,0,.256-1.171,1.459,1.459,0,0,0-.636-.992,1.549,1.549,0,0,0-1.178-.24" transform="translate(-63.494 -35.567)" fill="#fff"/>
    <path id="パス_24" data-name="パス 24" d="M198.74,103.635l.712-.149-1.333,2.249,2.586,1.644-.778.162L197.484,106l.409,1.966-.57.118-.829-3.98.571-.119.378,1.821Z" transform="translate(-66.354 -34.946)" fill="#fff"/>
    <path id="パス_25" data-name="パス 25" d="M205.776,101.946l.687-.164-1.015,2.212.5,2.092-.58.14-.5-2.092-1.906-1.513.683-.164,1.385,1.111Z" transform="translate(-68.538 -34.371)" fill="#fff"/>
    <path id="パス_26" data-name="パス 26" d="M212.248,100.35a2.187,2.187,0,0,1,1.672.155,1.98,1.98,0,0,1,1,1.274,1.948,1.948,0,0,1-.212,1.6,2.248,2.248,0,0,1-1.38.995,2.121,2.121,0,0,1-1.633-.158,1.966,1.966,0,0,1-.985-1.26,2.01,2.01,0,0,1,.191-1.619,2.146,2.146,0,0,1,1.342-.991m.17.527a1.573,1.573,0,0,0-.988.727,1.482,1.482,0,0,0-.135,1.193,1.457,1.457,0,0,0,.727.935,1.675,1.675,0,0,0,2.179-.613,1.489,1.489,0,0,0,.142-1.19,1.455,1.455,0,0,0-.729-.927,1.544,1.544,0,0,0-1.2-.125" transform="translate(-71.127 -33.854)" fill="#fff"/>
    <path id="パス_27" data-name="パス 27" d="M103.849,3.707l-.464-.228a1.981,1.981,0,0,1-.634-.446.943.943,0,0,1-.227-.547,1,1,0,0,1,.263-.807,1.242,1.242,0,0,1,.835-.375,1.635,1.635,0,0,1,.956.2l.058.658a1.339,1.339,0,0,0-.98-.336A.785.785,0,0,0,103.2,2a.4.4,0,0,0-.152.352.52.52,0,0,0,.165.329,1.684,1.684,0,0,0,.463.3l.466.222a1.3,1.3,0,0,1,.842,1.061,1.035,1.035,0,0,1-.255.82,1.2,1.2,0,0,1-.821.381,1.787,1.787,0,0,1-1.126-.271l-.066-.736a1.366,1.366,0,0,0,1.14.5.685.685,0,0,0,.44-.191.479.479,0,0,0,.146-.4c-.022-.246-.221-.464-.6-.653" transform="translate(-34.619 -0.438)" fill="#fff"/>
    <path id="パス_28" data-name="パス 28" d="M109.385.94,109.966.9l.293,4.055L109.679,5Z" transform="translate(-36.938 -0.304)" fill="#fff"/>
    <path id="パス_29" data-name="パス 29" d="M117.482.361l.552-.028.209,4.061-.5.026L114.868,1.43l.16,3.128-.546.028L114.274.526,114.745.5l2.9,3.013Z" transform="translate(-38.589 -0.112)" fill="#fff"/>
    <path id="パス_30" data-name="パス 30" d="M127.418,3.17l.016.64a3.048,3.048,0,0,1-1.469.385,2.282,2.282,0,0,1-1.162-.244,2.015,2.015,0,0,1-.77-.735,2.037,2.037,0,0,1-.3-1.031,1.987,1.987,0,0,1,.595-1.51,2.172,2.172,0,0,1,1.546-.644,3.663,3.663,0,0,1,1.431.3l.016.626a2.8,2.8,0,0,0-1.4-.372,1.611,1.611,0,0,0-1.148.47,1.464,1.464,0,0,0-.433,1.116,1.448,1.448,0,0,0,.481,1.088,1.62,1.62,0,0,0,1.172.4,2.634,2.634,0,0,0,1.432-.49" transform="translate(-41.782 -0.01)" fill="#fff"/>
    <path id="パス_31" data-name="パス 31" d="M132.872.015l2.3-.014,0,.519-1.723.01.008,1.241,1.664-.01,0,.52-1.665.011.008,1.264,1.779-.012,0,.519-2.361.015Z" transform="translate(-44.869 0)" fill="#fff"/>
    <rect id="長方形_2" data-name="長方形 2" width="4.067" height="0.582" transform="translate(96.714 4.176) rotate(-88.241)" fill="#fff"/>
    <path id="パス_32" data-name="パス 32" d="M152.487,4.53l-.336-.44a3.345,3.345,0,0,0,.823-.651,2.2,2.2,0,0,0,.493-.81,1.19,1.19,0,0,1-.657.138,1.065,1.065,0,0,1-.781-.385,1.159,1.159,0,0,1-.29-.848,1.162,1.162,0,0,1,.4-.839,1.261,1.261,0,0,1,1.8.156,1.554,1.554,0,0,1,.313,1.085,2.861,2.861,0,0,1-.536,1.47,3.453,3.453,0,0,1-1.231,1.125m1.122-2.473a2.79,2.79,0,0,0,.05-.3.844.844,0,0,0-.167-.585A.643.643,0,0,0,153,.922a.622.622,0,0,0-.477.166.667.667,0,0,0-.209.47.613.613,0,0,0,.178.466.671.671,0,0,0,.47.217,1.12,1.12,0,0,0,.648-.183" transform="translate(-51.24 -0.13)" fill="#fff"/>
    <path id="パス_33" data-name="パス 33" d="M159.219.807l1.8.128-.037.518-1.272-.091-.073,1.025c.04,0,.083,0,.125,0a1.358,1.358,0,0,1,.944.428,1.2,1.2,0,0,1,.316.94,1.229,1.229,0,0,1-.442.9,1.359,1.359,0,0,1-1,.29,2.082,2.082,0,0,1-.941-.307l.042-.6a1.591,1.591,0,0,0,.836.345.912.912,0,0,0,.629-.17.675.675,0,0,0,.054-1.064,1.049,1.049,0,0,0-.658-.264,1.25,1.25,0,0,0-.475.025Z" transform="translate(-53.571 -0.273)" fill="#fff"/>
    <path id="パス_34" data-name="パス 34" d="M166.478,5.511l-.317-.452a3.342,3.342,0,0,0,.849-.616,2.177,2.177,0,0,0,.526-.789,1.2,1.2,0,0,1-.662.111,1.066,1.066,0,0,1-.764-.417,1.157,1.157,0,0,1-.255-.86,1.166,1.166,0,0,1,.432-.821,1.189,1.189,0,0,1,.9-.272,1.2,1.2,0,0,1,.9.5,1.554,1.554,0,0,1,.267,1.1,2.855,2.855,0,0,1-.6,1.446,3.448,3.448,0,0,1-1.278,1.072M167.7,3.088a2.734,2.734,0,0,0,.063-.3.842.842,0,0,0-.143-.591.64.64,0,0,0-.482-.27.627.627,0,0,0-.483.148.656.656,0,0,0-.228.459.61.61,0,0,0,.158.474.669.669,0,0,0,.461.235,1.105,1.105,0,0,0,.654-.155" transform="translate(-56.006 -0.468)" fill="#fff"/>
  </g>
</svg>
